<svg width="64" height="64" viewBox="0 0 64 64" fill="none" xmlns="http://www.w3.org/2000/svg">
<path d="M21.3333 21.3334L21.3333 18.6667C21.3333 12.7757 26.1089 8.00004 32 8.00004V8.00004C37.891 8.00004 42.6666 12.7757 42.6666 18.6667L42.6666 21.3334" stroke="#33363F" stroke-width="2" stroke-linecap="round"/>
<path d="M40 37.3333V32" stroke="#33363F" stroke-width="2" stroke-linecap="round"/>
<path d="M24 37.3333V32" stroke="#33363F" stroke-width="2" stroke-linecap="round"/>
<path d="M10.6667 25.3334C10.6667 23.4478 10.6667 22.5049 11.2525 21.9192C11.8383 21.3334 12.7811 21.3334 14.6667 21.3334H49.3333C51.219 21.3334 52.1618 21.3334 52.7476 21.9192C53.3334 22.5049 53.3334 23.4478 53.3334 25.3334V48C53.3334 51.7713 53.3334 53.6569 52.1618 54.8285C50.9902 56 49.1046 56 45.3334 56H18.6667C14.8955 56 13.0098 56 11.8383 54.8285C10.6667 53.6569 10.6667 51.7713 10.6667 48V25.3334Z" stroke="#33363F" stroke-width="2"/>
</svg>
