<svg width="40" height="40" viewBox="0 0 40 40" fill="none" xmlns="http://www.w3.org/2000/svg">
<path d="M19.9998 23.3333L19.2927 24.0404L19.9998 24.7475L20.7069 24.0404L19.9998 23.3333ZM20.9998 8.33331C20.9998 7.78103 20.5521 7.33331 19.9998 7.33331C19.4476 7.33331 18.9998 7.78103 18.9998 8.33331L20.9998 8.33331ZM10.9594 15.7071L19.2927 24.0404L20.7069 22.6262L12.3736 14.2929L10.9594 15.7071ZM20.7069 24.0404L29.0403 15.7071L27.6261 14.2929L19.2927 22.6262L20.7069 24.0404ZM20.9998 23.3333L20.9998 8.33331L18.9998 8.33331L18.9998 23.3333L20.9998 23.3333Z" fill="currentColor"/>
<path d="M8.3335 26.6667L8.3335 28.3334C8.3335 30.1743 9.82588 31.6667 11.6668 31.6667L28.3335 31.6667C30.1744 31.6667 31.6668 30.1743 31.6668 28.3334V26.6667" stroke="currentColor" stroke-width="2"/>
</svg>
