<svg width="25" height="25" viewBox="0 0 25 25" fill="none" xmlns="http://www.w3.org/2000/svg">
<path d="M7.29175 7.42914V6.69541C7.29175 4.54952 7.29175 3.47657 7.98134 2.87849C8.67094 2.2804 9.73311 2.43214 11.8574 2.73561L16.7236 3.43078C19.1797 3.78166 20.4078 3.9571 21.1414 4.80299C21.8751 5.64888 21.8751 6.88941 21.8751 9.37048V15.6296C21.8751 18.1107 21.8751 19.3512 21.1414 20.1971C20.4078 21.043 19.1797 21.2184 16.7236 21.5693L11.8574 22.2645C9.73311 22.5679 8.67094 22.7197 7.98134 22.1216C7.29175 21.5235 7.29175 20.4506 7.29175 18.3047V17.7771" stroke="currentColor" stroke-width="2"/>
<path d="M16.6667 12.5L17.4476 11.8753L17.9474 12.5L17.4476 13.1247L16.6667 12.5ZM4.16675 13.5C3.61446 13.5 3.16675 13.0522 3.16675 12.5C3.16675 11.9477 3.61446 11.5 4.16675 11.5V13.5ZM13.281 6.66693L17.4476 11.8753L15.8859 13.1247L11.7192 7.91632L13.281 6.66693ZM17.4476 13.1247L13.281 18.333L11.7192 17.0836L15.8859 11.8753L17.4476 13.1247ZM16.6667 13.5H4.16675V11.5H16.6667V13.5Z" fill="currentColor"/>
</svg>
