<svg width="25" height="25" viewBox="0 0 25 25" fill="none" xmlns="http://www.w3.org/2000/svg">
<path d="M15.1041 21.875V16.625C15.1041 16.0727 14.6564 15.625 14.1041 15.625H10.8958C10.3435 15.625 9.89575 16.0727 9.89575 16.625V21.875" stroke="currentColor" stroke-width="2" stroke-linecap="round" stroke-linejoin="round"/>
<path d="M5.20825 11.4584V17.875C5.20825 19.7607 5.20825 20.7035 5.79404 21.2893C6.37982 21.875 7.32263 21.875 9.20825 21.875H15.7916C17.6772 21.875 18.62 21.875 19.2058 21.2893C19.7916 20.7035 19.7916 19.7607 19.7916 17.875V11.4584" stroke="currentColor" stroke-width="2"/>
<path d="M4.8296 4.63993C5.01149 3.91237 5.10244 3.54859 5.3737 3.33679C5.64496 3.125 6.01993 3.125 6.76989 3.125H18.2301C18.9801 3.125 19.355 3.125 19.6263 3.33679C19.8976 3.54859 19.9885 3.91237 20.1704 4.63993L21.4399 9.7181C21.5526 10.1688 21.609 10.3942 21.5872 10.5767C21.5431 10.9462 21.2976 11.2606 20.9499 11.3929C20.7781 11.4583 20.541 11.4583 20.0668 11.4583V11.4583C19.4444 11.4583 19.1333 11.4583 18.8736 11.3871C18.3051 11.2312 17.8343 10.8324 17.587 10.2972C17.4741 10.0528 17.424 9.75205 17.3237 9.15059V9.15059C17.2957 8.98227 17.2816 8.89811 17.2639 8.87715C17.224 8.82976 17.151 8.82976 17.1111 8.87715C17.0934 8.89811 17.0793 8.98227 17.0513 9.15059L16.9664 9.66022C16.9464 9.77993 16.9364 9.83979 16.9248 9.89191C16.7302 10.7683 15.9755 11.4076 15.0791 11.4555C15.0258 11.4583 14.9651 11.4583 14.8437 11.4583V11.4583C14.7224 11.4583 14.6617 11.4583 14.6084 11.4555C13.712 11.4076 12.9573 10.7683 12.7626 9.89191C12.7511 9.83979 12.7411 9.77993 12.7211 9.66022L12.6362 9.15059C12.6082 8.98227 12.5941 8.89811 12.5764 8.87715C12.5365 8.82976 12.4635 8.82976 12.4236 8.87715C12.4059 8.89811 12.3918 8.98227 12.3638 9.15059L12.2789 9.66022C12.2589 9.77993 12.2489 9.83979 12.2374 9.89191C12.0427 10.7683 11.288 11.4076 10.3916 11.4555C10.3383 11.4583 10.2776 11.4583 10.1562 11.4583V11.4583C10.0349 11.4583 9.9742 11.4583 9.92089 11.4555C9.02446 11.4076 8.26976 10.7683 8.07515 9.89191C8.06358 9.83979 8.0536 9.77993 8.03365 9.66022L7.94871 9.15059C7.92066 8.98227 7.90663 8.89811 7.88895 8.87715C7.849 8.82976 7.776 8.82976 7.73605 8.87715C7.71837 8.89811 7.70434 8.98227 7.67629 9.15059V9.15059C7.57605 9.75205 7.52593 10.0528 7.41296 10.2972C7.1657 10.8324 6.69494 11.2312 6.12643 11.3871C5.86672 11.4583 5.55556 11.4583 4.93324 11.4583V11.4583C4.45903 11.4583 4.22192 11.4583 4.05009 11.3929C3.70236 11.2606 3.45686 10.9462 3.41281 10.5767C3.39104 10.3942 3.44738 10.1688 3.56006 9.7181L4.8296 4.63993Z" stroke="currentColor" stroke-width="2"/>
</svg>
