<svg xmlns="http://www.w3.org/2000/svg" width="24" height="24" fill="none">
 <g>
  <path id="svg_1" fill="#E7E7E7" d="m14.1361,3.36144l0.9951,-0.0995l-0.9951,0.0995zm-0.1523,-0.81983l-0.8888,0.45839l0,0l0.8888,-0.45839zm0.4473,2.27632l0.795,-0.60652l0,0l-0.795,0.60652zm0.9284,0.38455l-0.1334,-0.99107l0.1334,0.99107zm1.2384,-0.82135l0.6332,0.77396l0,0l-0.6332,-0.77396zm0.6874,-0.47195l0.3043,0.95257l-0.3043,-0.95257zm0.7019,0.03501l0.3976,-0.91756l0,0l-0.3976,0.91756zm0.6371,0.53801l-0.7071,0.7071l0,0.00001l0.7071,-0.70711zm0.8935,0.89347l0.7071,-0.70711l0,0l-0.7071,0.70711zm0.538,0.63708l0.9175,-0.39758l0,-0.00001l-0.9175,0.39759zm0.035,0.70189l0.9526,0.30431l0,-0.00001l-0.9526,-0.3043zm-0.472,0.68746l-0.7739,-0.63324l0,0l0.7739,0.63324zm-0.8213,1.23846l-0.9911,-0.13332l0,0.00001l0.9911,0.13331zm0.3845,0.92837l-0.6065,0.79507l0,0l0.6065,-0.79507zm1.4565,0.29492l0.0995,-0.99503l-0.0995,0.99503zm0.8199,0.15235l0.4584,-0.8887l0,0l-0.4584,0.8887zm0.4715,0.5211l0.93,-0.3677l0,0l-0.93,0.3677zm0.0001,2.9253l-0.93,-0.3676l0,0l0.93,0.3676zm-0.4717,0.5212l0.4583,0.8888l0,0l-0.4583,-0.8888zm-0.8197,0.1523l-0.0995,-0.995l-0.0326,0.0033l-0.0323,0.0053l0.1644,0.9864zm0,0l0.0995,0.9951l0.0326,-0.0033l0.0323,-0.0054l-0.1644,-0.9864zm-1.4561,0.2948l-0.6063,-0.7952l0,0l0.6063,0.7952zm-0.3846,0.9287l-0.9911,0.1335l0,0l0.9911,-0.1335zm0.8211,1.238l-0.774,0.6332l0,0l0.774,-0.6332zm0.4718,0.6872l-0.9525,0.3044l0,0l0.9525,-0.3044zm-0.035,0.7021l-0.9175,-0.3977l0,0l0.9175,0.3977zm-0.5379,0.6369l0.7071,0.7071l0,0l-0.7071,-0.7071zm-0.8936,0.8936l-0.7071,-0.7072l0,0.0001l0.7071,0.7071zm-0.637,0.538l0.3976,0.9175l0,0l-0.3976,-0.9175zm-0.7019,0.035l-0.3044,0.9525l0,0l0.3044,-0.9525zm-0.6875,-0.472l0.6333,-0.774l-0.0086,-0.0068l-0.6247,0.7808zm0,0l-0.6333,0.774l0.0086,0.0069l0.6247,-0.7809zm-1.2384,-0.8213l0.1333,-0.9911l0,0l-0.1333,0.9911zm-0.9284,0.3845l0.7951,0.6066l0,-0.0001l-0.7951,-0.6065zm-0.2949,1.4567l-0.9951,-0.0995l0,0l0.9951,0.0995zm-0.1525,0.8202l-0.8887,-0.4585l0,0l0.8887,0.4585zm-0.5209,0.4714l-0.3678,-0.9299l0,0l0.3678,0.9299zm-2.9255,0l0.3677,-0.9299l-0.3677,0.9299zm-0.5211,-0.4715l0.8888,-0.4584l0,0l-0.8888,0.4584zm-0.15235,-0.8199l-0.99503,0.0996l0,0l0.99503,-0.0996zm-0.29493,-1.4565l-0.79505,0.6065l0,0l0.79505,-0.6065zm-0.92835,-0.3845l-0.13329,-0.9911l-0.00001,0l0.1333,0.9911zm-1.23849,0.8214l-0.63324,-0.774l-0.01584,0.013l-0.01529,0.0135l0.66437,0.7475zm-0.00002,0l0.63324,0.7739l0.01583,-0.0129l0.0153,-0.0136l-0.66437,-0.7474zm-0.68748,0.4719l0.30429,0.9526l0,0l-0.30429,-0.9526zm-0.70186,-0.035l-0.39757,0.9176l0,0l0.39757,-0.9176zm-0.63711,-0.538l0.7071,-0.7071l0,0l-0.7071,0.7071zm-0.89344,-0.8935l-0.70711,0.7072l0,0l0.70711,-0.7072zm-0.53803,-0.637l0.91757,-0.3976l0,0l-0.91757,0.3976zm-0.03501,-0.7019l0.95258,0.3043l0,0l-0.95258,-0.3043zm0.47197,-0.6875l0.77396,0.6332l0,0l-0.77396,-0.6332zm0.82137,-1.2385l0.99108,0.1334l-0.99108,-0.1334zm-0.38455,-0.9283l0.60653,-0.7951l0,0l-0.60653,0.7951zm-1.45649,-0.295l-0.0995,0.9951l0,0l0.0995,-0.9951zm-0.81982,-0.1523l0.45839,-0.8888l0,0l-0.45839,0.8888zm-0.47156,-0.5211l-0.92996,0.3677l0,0l0.92996,-0.3677zm0.00003,-2.9255l-0.92991,-0.3678l0,0l0.92991,0.3678zm0.47144,-0.5209l-0.45847,-0.88873l0,0l0.45847,0.88873zm0.82003,-0.15246l0,-1l-0.04988,0l-0.04962,0.00497l0.0995,0.99503zm0.00001,0l0,0.99996l0.04987,0l0.04963,-0.0049l-0.0995,-0.99506zm1.45686,-0.29503l-0.60664,-0.79498l-0.00001,0l0.60665,0.79498zm0.38445,-0.92815l0.99109,-0.13317l0,0l-0.99109,0.13317zm-0.82159,-1.23884l0.77395,-0.63324l0,0l-0.77395,0.63324zm-0.47214,-0.68777l0.95261,-0.30417l0,0l-0.95261,0.30417zm0.03499,-0.70162l-0.91762,-0.39745l0,0l0.91762,0.39745zm0.5382,-0.63734l0.70711,0.70711l0,0l-0.70711,-0.70711zm0.89332,-0.89332l-0.7071,-0.70711l0,0l0.7071,0.70711zm0.63712,-0.53804l-0.39757,-0.91758l0,0.00001l0.39757,0.91757zm0.70186,-0.03501l0.30429,-0.95258l0,0l-0.30429,0.95258zm0.68757,0.47204l0.63323,-0.77395l0,0l-0.63323,0.77395zm1.23824,0.82131l0.13347,-0.99106l-0.13347,0.99106zm0.92863,-0.38465l-0.79516,-0.60641l0,0l0.79516,0.60641zm0.2948,-1.45611l0.99503,0.0995l0,0l-0.99503,-0.0995zm0.15233,-0.81961l-0.88881,-0.45829l0,0l0.88881,0.45829zm0.5212,-0.47169l0.3676,0.92999l0,0l-0.3676,-0.92999zm2.9253,0.00004l0.3677,-0.92995l0,0l-0.3677,0.92995zm1.6685,1.19189c-0.0204,-0.20363 -0.04,-0.40501 -0.0686,-0.57514c-0.0302,-0.17996 -0.0798,-0.38975 -0.1901,-0.60358l-1.7775,0.91678c-0.0229,-0.04451 -0.0181,-0.06122 -0.0048,0.01798c0.015,0.08903 0.0279,0.21291 0.0509,0.44296l1.9901,-0.199zm0.0949,0.94947c0.0633,0.08292 0.0432,0.1196 0.0081,-0.07546c-0.0334,-0.1855 -0.0603,-0.4468 -0.103,-0.87401l-1.9901,0.199c0.0394,0.39365 0.0741,0.74801 0.1247,1.02923c0.0489,0.27167 0.1351,0.62616 0.3702,0.93428l1.5901,-1.21304zm0,0l0,0l-1.5901,1.21303c0.4358,0.57131 1.1446,0.86491 1.8568,0.76911l-0.2667,-1.98214zm0.7385,-0.60424c-0.3323,0.27188 -0.536,0.43764 -0.6908,0.54521c-0.1627,0.1131 -0.151,0.07293 -0.0477,0.05903l0.2667,1.98214c0.384,-0.05167 0.6957,-0.24132 0.9224,-0.39885c0.2346,-0.16307 0.5097,-0.3891 0.8159,-0.63961l-1.2665,-1.54792zm1.0164,-0.65056c-0.2292,0.07322 -0.4126,0.18647 -0.5612,0.29236c-0.1405,0.1001 -0.2968,0.22862 -0.4552,0.3582l1.2665,1.54792c0.1789,-0.1464 0.2757,-0.22487 0.3492,-0.27725c0.0654,-0.0466 0.057,-0.03133 0.0093,-0.01609l-0.6086,-1.90514zm1.4038,0.07002c-0.444,-0.19242 -0.9428,-0.21729 -1.4038,-0.07002l0.6086,1.90514l0,0l0.7952,-1.83512zm0.9466,0.74846c-0.1447,-0.14469 -0.2874,-0.28813 -0.4172,-0.40171c-0.1374,-0.12015 -0.3086,-0.2511 -0.5294,-0.34675l-0.7952,1.83512c-0.0459,-0.01991 -0.0527,-0.03594 0.0077,0.01694c0.068,0.05944 0.1564,0.14714 0.3199,0.31061l1.4142,-1.41421zm0.8935,0.89347l-0.8935,-0.89347l-1.4142,1.41422l0.8935,0.89346l1.4142,-1.41421zm0.7484,0.9466c-0.0956,-0.22075 -0.2266,-0.392 -0.3467,-0.52935c-0.1136,-0.12984 -0.257,-0.27255 -0.4017,-0.41725l-1.4143,1.41421c0.1635,0.16349 0.2512,0.25192 0.3107,0.31987c0.0529,0.06044 0.0368,0.05365 0.0169,0.0077l1.8351,-0.79518zm0.0701,1.40378c0.1472,-0.46097 0.1224,-0.95972 -0.0701,-1.40377l-1.8351,0.79517l0,0l1.9052,0.6086zm-0.6506,1.0164c0.1296,-0.15838 0.2581,-0.31465 0.3582,-0.45515c0.1059,-0.14863 0.2191,-0.33205 0.2924,-0.56124l-1.9052,-0.60862c0.0153,-0.0477 0.0305,-0.05606 -0.0161,0.00935c-0.0524,0.07352 -0.1308,0.17024 -0.2772,0.34918l1.5479,1.26648zm-0.6043,0.73853c-0.0139,0.10336 -0.054,0.11507 0.0591,-0.04768c0.1075,-0.15478 0.2733,-0.35855 0.5452,-0.69085l-1.5479,-1.26648c-0.2506,0.3062 -0.4766,0.5813 -0.6397,0.81595c-0.1575,0.22667 -0.3471,0.53836 -0.3988,0.92243l1.9821,0.26663zm0,0l0,-0.00001l-1.9821,-0.26661c-0.0958,0.71213 0.1978,1.42091 0.7691,1.85675l1.213,-1.59013zm0.9495,0.09495c-0.4272,-0.04273 -0.6885,-0.0696 -0.874,-0.10298c-0.1951,-0.03511 -0.1584,-0.05524 -0.0755,0.00803l-1.213,1.59013c0.3081,0.235 0.6626,0.3213 0.9343,0.3702c0.2812,0.0506 0.6356,0.0853 1.0292,0.1247l0.199,-1.99008zm1.1788,0.25868c-0.2138,-0.11029 -0.4236,-0.15991 -0.6036,-0.19013c-0.1701,-0.02857 -0.3715,-0.04819 -0.5752,-0.06855l-0.199,1.99008c0.2301,0.023 0.354,0.0359 0.443,0.0509c0.0792,0.0133 0.0625,0.0181 0.018,-0.0048l0.9168,-1.7775zm0.9431,1.0421c-0.1779,-0.45003 -0.513,-0.82027 -0.9431,-1.0421l-0.9168,1.7775l0,0l1.8599,-0.7354zm0.1401,1.1986c0,-0.2046 0.0005,-0.4069 -0.011,-0.5791c-0.0121,-0.1821 -0.0406,-0.3958 -0.1291,-0.6195l-1.8599,0.7354c-0.0184,-0.0466 -0.0119,-0.0627 -0.0065,0.0174c0.006,0.0901 0.0065,0.2146 0.0065,0.4458l2,0zm0,1.2637l0,-1.2637l-2,0l0,1.2637l2,0zm-0.14,1.1983c0.0884,-0.2237 0.1169,-0.4373 0.129,-0.6194c0.0115,-0.172 0.011,-0.3743 0.011,-0.5789l-2,0c0,0.2311 -0.0005,0.3556 -0.0065,0.4457c-0.0054,0.0801 -0.0119,0.064 0.0065,0.0174l1.86,0.7352zm-0.9434,1.0424c0.4303,-0.2219 0.7654,-0.5922 0.9434,-1.0424l-1.86,-0.7352l0,0l0.9166,1.7776zm-1.1785,0.2586c0.2036,-0.0204 0.405,-0.04 0.5751,-0.0686c0.1799,-0.0302 0.3896,-0.0798 0.6034,-0.19l-0.9166,-1.7776c0.0445,-0.0229 0.0612,-0.018 -0.018,-0.0048c-0.089,0.015 -0.2129,0.0279 -0.4429,0.0509l0.199,1.9901zm0.0649,-0.0087l0,0l-0.3288,-1.9728l0,0l0.3288,1.9728zm-1.0141,0.1036c-0.0829,0.0632 -0.1196,0.0431 0.0755,0.008c0.1854,-0.0334 0.4466,-0.0602 0.8737,-0.1029l-0.199,-1.9901c-0.3935,0.0394 -0.7478,0.074 -1.0289,0.1246c-0.2716,0.0489 -0.626,0.1351 -0.934,0.37l1.2127,1.5904zm0,0l0,0l-1.2127,-1.5904c-0.5716,0.4359 -0.8654,1.145 -0.7694,1.8574l1.9821,-0.267zm0.604,0.7382c-0.2717,-0.3321 -0.4374,-0.5358 -0.545,-0.6905c-0.1131,-0.1627 -0.0729,-0.151 -0.059,-0.0477l-1.9821,0.267c0.0517,0.3839 0.2413,0.6955 0.3988,0.9221c0.163,0.2345 0.389,0.5095 0.6394,0.8156l1.5479,-1.2665zm0.6504,1.016c-0.0732,-0.229 -0.1864,-0.4124 -0.2923,-0.561c-0.1,-0.1404 -0.2285,-0.2966 -0.3581,-0.455l-1.5479,1.2665c0.1464,0.1789 0.2248,0.2756 0.2772,0.3491c0.0466,0.0654 0.0313,0.057 0.0161,0.0093l1.905,-0.6089zm-0.07,1.4043c0.1925,-0.4442 0.2174,-0.9431 0.07,-1.4043l-1.905,0.6089l0,0l1.835,0.7954zm-0.7483,0.9463c0.1447,-0.1447 0.2881,-0.2873 0.4016,-0.4171c0.1201,-0.1373 0.251,-0.3085 0.3467,-0.5292l-1.835,-0.7954c0.0199,-0.0459 0.0359,-0.0527 -0.017,0.0077c-0.0594,0.0679 -0.1471,0.1563 -0.3105,0.3198l1.4142,1.4142zm-0.8936,0.8936l0.8936,-0.8936l-1.4142,-1.4142l-0.8936,0.8935l1.4142,1.4143zm-0.9465,0.7484c0.2207,-0.0956 0.392,-0.2266 0.5293,-0.3467c0.1298,-0.1136 0.2725,-0.257 0.4172,-0.4017l-1.4142,-1.4142c-0.1635,0.1634 -0.2519,0.2511 -0.3198,0.3106c-0.0605,0.0528 -0.0537,0.0368 -0.0077,0.0169l0.7952,1.8351zm-1.4039,0.07c0.461,0.1473 0.9598,0.1224 1.4039,-0.07l-0.7952,-1.8351l0,0l-0.6087,1.9051zm-1.0163,-0.6505c0.1584,0.1296 0.3146,0.2581 0.4551,0.3582c0.1486,0.1059 0.3321,0.2191 0.5612,0.2923l0.6087,-1.9051c0.0477,0.0152 0.056,0.0305 -0.0094,-0.0161c-0.0735,-0.0524 -0.1702,-0.1308 -0.3491,-0.2772l-1.2665,1.5479zm0.0085,0.0069l0,0l1.2494,-1.5617l0,-0.0001l-1.2494,1.5618zm-0.747,-0.6112c-0.1034,-0.0139 -0.1151,-0.054 0.0476,0.0591c0.1548,0.1075 0.3586,0.2733 0.6909,0.5452l1.2664,-1.5479c-0.3061,-0.2506 -0.5812,-0.4766 -0.8159,-0.6397c-0.2266,-0.1575 -0.5383,-0.3471 -0.9224,-0.3988l-0.2666,1.9821zm0,0l0,0l0.2666,-1.9821c-0.7121,-0.0958 -1.4209,0.1978 -1.8568,0.7691l1.5902,1.213zm-0.095,0.9497c0.0427,-0.4273 0.0696,-0.6886 0.103,-0.8742c0.0351,-0.1951 0.0552,-0.1584 -0.008,-0.0754l-1.5902,-1.2131c-0.235,0.3081 -0.3213,0.6627 -0.3702,0.9343c-0.0506,0.2813 -0.0853,0.6357 -0.1247,1.0294l1.9901,0.199zm-0.2588,1.1792c0.1104,-0.2139 0.16,-0.4238 0.1902,-0.6038c0.0286,-0.1702 0.0482,-0.3717 0.0686,-0.5754l-1.9901,-0.199c-0.023,0.2302 -0.0359,0.3541 -0.0509,0.4432c-0.0133,0.0792 -0.0182,0.0625 0.0048,0.018l1.7774,0.917zm-1.0418,0.9428c0.4499,-0.1779 0.82,-0.5129 1.0418,-0.9428l-1.7774,-0.917l0,0l0.7356,1.8598zm-1.199,0.1402c0.2047,0 0.4071,0.0005 0.5793,-0.011c0.1821,-0.0122 0.3959,-0.0407 0.6197,-0.1292l-0.7356,-1.8598c0.0466,-0.0184 0.0627,-0.0119 -0.0174,-0.0065c-0.0901,0.006 -0.2147,0.0065 -0.446,0.0065l0,2zm-1.2634,0l1.2634,0l0,-2l-1.2634,0l0,2zm-1.1986,-0.1401c0.2237,0.0885 0.4374,0.117 0.6195,0.1291c0.1722,0.0115 0.3745,0.011 0.5791,0.011l0,-2c-0.2312,0 -0.3557,-0.0005 -0.4458,-0.0065c-0.0801,-0.0054 -0.064,-0.0119 -0.0174,0.0065l-0.7354,1.8599zm-1.0421,-0.9431c0.22183,0.4301 0.59208,0.7652 1.0421,0.9431l0.7354,-1.8599l-1.7775,0.9168zm-0.25868,-1.1787c0.02036,0.2036 0.03998,0.405 0.06855,0.5751c0.03022,0.18 0.07984,0.3898 0.19013,0.6036l1.7775,-0.9168c0.0229,0.0445 0.0181,0.0612 0.0048,-0.018c-0.015,-0.089 -0.0279,-0.2129 -0.0509,-0.443l-1.99008,0.1991zm-0.09495,-0.9496c-0.06327,-0.0829 -0.04314,-0.1196 -0.00803,0.0755c0.03338,0.1855 0.06025,0.4468 0.10298,0.8741l1.99008,-0.1991c-0.0394,-0.3936 -0.0741,-0.748 -0.1247,-1.0292c-0.0489,-0.2717 -0.1352,-0.6262 -0.3702,-0.9343l-1.59013,1.213zm0,0l1.59013,-1.213c-0.43585,-0.5713 -1.14461,-0.8649 -1.85672,-0.7691l0.26659,1.9821zm-0.73856,0.6043c0.33232,-0.2719 0.53609,-0.4377 0.69088,-0.5452c0.16276,-0.1131 0.15105,-0.073 0.04768,-0.0591l-0.2666,-1.9821c-0.38409,0.0516 -0.69578,0.2413 -0.92246,0.3988c-0.23466,0.1631 -0.50977,0.3892 -0.81597,0.6397l1.26647,1.5479zm0.03112,-0.0265l0.00001,0l-1.32873,-1.4949l-0.00001,0.0001l1.32873,1.4948zm-1.04756,0.6771c0.2292,-0.0732 0.41263,-0.1865 0.56126,-0.2924c0.14051,-0.1001 0.29678,-0.2286 0.45517,-0.3582l-1.26647,-1.5479c-0.17895,0.1464 -0.27567,0.2249 -0.3492,0.2773c-0.06541,0.0466 -0.05705,0.0313 -0.00934,0.0161l0.60858,1.9051zm-1.40372,-0.07c0.44404,0.1924 0.94276,0.2173 1.40372,0.07l-0.60858,-1.9051l0,0l-0.79514,1.8351zm-0.94665,-0.7485c0.14471,0.1447 0.28742,0.2881 0.41727,0.4017c0.13736,0.1202 0.30861,0.2511 0.52938,0.3468l0.79514,-1.8351c0.04595,0.0199 0.05275,0.0359 -0.0077,-0.017c-0.06795,-0.0594 -0.15639,-0.1471 -0.31988,-0.3106l-1.41421,1.4142zm-0.89344,-0.8934l0.89344,0.8934l1.41421,-1.4142l-0.89344,-0.8935l-1.41421,1.4143zm-0.74849,-0.9467c0.09566,0.2208 0.22661,0.392 0.34676,0.5294c0.11359,0.1298 0.25703,0.2726 0.40173,0.4173l1.41422,-1.4143c-0.16349,-0.1634 -0.25119,-0.2519 -0.31064,-0.3198c-0.05287,-0.0605 -0.03684,-0.0537 -0.01693,-0.0077l-1.83514,0.7951zm-0.07001,-1.4037c-0.14726,0.461 -0.12239,0.9597 0.07001,1.4037l1.83514,-0.7951l0,0l-1.90515,-0.6086zm0.65059,-1.0164c-0.12959,0.1583 -0.25812,0.3146 -0.35823,0.4551c-0.10589,0.1486 -0.21915,0.3321 -0.29236,0.5613l1.90515,0.6086c-0.01524,0.0477 -0.03052,0.056 0.01608,-0.0094c0.05239,-0.0735 0.13086,-0.1702 0.27727,-0.3492l-1.54791,-1.2664zm0.60425,-0.7386c0.0139,-0.1033 0.05408,-0.115 -0.05903,0.0477c-0.10757,0.1548 -0.27334,0.3586 -0.54522,0.6909l1.54791,1.2664c0.25052,-0.3062 0.47656,-0.5813 0.63963,-0.8159c0.15753,-0.2267 0.34719,-0.5384 0.39886,-0.9224l-1.98215,-0.2667zm0,0l0,0l1.98215,0.2667c0.09579,-0.7122 -0.1978,-1.421 -0.7691,-1.8568l-1.21305,1.5901zm-0.94947,-0.0949c0.42722,0.0427 0.68851,0.0696 0.87402,0.103c0.19506,0.0351 0.15837,0.0552 0.07545,-0.0081l1.21305,-1.5901c-0.30812,-0.2351 -0.66261,-0.3213 -0.93428,-0.3702c-0.28123,-0.0506 -0.63559,-0.0853 -1.02924,-0.1247l-0.199,1.9901zm-1.1787,-0.2587c0.21382,0.1103 0.4236,0.1599 0.60357,0.1901c0.17013,0.0286 0.37151,0.0482 0.57513,0.0686l0.19901,-1.9901c-0.23005,-0.023 -0.35393,-0.0359 -0.44296,-0.0509c-0.0792,-0.0133 -0.06249,-0.0181 -0.01798,0.0048l-0.91677,1.7775zm-0.94314,-1.0421c0.17794,0.45 0.51302,0.8203 0.94314,1.0421l0.91677,-1.7775l0,0l-1.85991,0.7354zm-0.14009,-1.1986c0,0.2046 -0.00052,0.4069 0.01098,0.5791c0.01216,0.1821 0.04065,0.3957 0.12911,0.6195l1.85991,-0.7354c0.01841,0.0466 0.01188,0.0627 0.00653,-0.0174c-0.00601,-0.0901 -0.00653,-0.2146 -0.00653,-0.4458l-2,0zm0,-1.2635l0,1.2635l2,0l0,-1.2635l-2,0zm0.14017,-1.1989c-0.08851,0.2238 -0.11702,0.4376 -0.12919,0.6197c-0.0115,0.1722 -0.01098,0.3746 -0.01098,0.5792l2,0c0,-0.2312 0.00052,-0.3558 0.00654,-0.4459c0.00535,-0.0801 0.01188,-0.064 -0.00654,-0.0174l-1.85983,-0.7356zm0.94288,-1.04183c-0.42997,0.22182 -0.76495,0.59197 -0.94288,1.04183l1.85983,0.7356l0,0l-0.91695,-1.77743zm1.179,-0.25876c-0.20368,0.02036 -0.40511,0.03999 -0.57528,0.06856c-0.18001,0.03023 -0.38985,0.07987 -0.60372,0.1902l0.91695,1.77743c-0.04452,0.023 -0.06123,0.0181 0.01798,0.0048c0.08906,-0.015 0.21296,-0.0279 0.44307,-0.0509l-0.199,-1.99009zm0.0995,-0.00497l0,0l0,1.99996l0,0l0,-1.99996zm0.00001,0l-0.00001,0l0,1.99996l0.00001,0l0,-1.99996zm0.85021,-0.09001c0.08294,-0.06328 0.11964,-0.04314 -0.07547,-0.00803c-0.18555,0.0334 -0.44691,0.06027 -0.87425,0.10301l0.19901,1.99009c0.39376,-0.0394 0.74821,-0.0741 1.0295,-0.1247c0.27175,-0.0489 0.62634,-0.1353 0.9345,-0.3704l-1.21329,-1.58997zm0,0l0.00001,0l1.21328,1.58997c0.57107,-0.43579 0.86456,-1.14436 0.7689,-1.85631l-1.98219,0.26634zm-0.60445,-0.73877c0.27197,0.3324 0.43779,0.53624 0.5454,0.69108c0.11314,0.16281 0.07295,0.1511 0.05905,0.04769l1.98219,-0.26634c-0.05162,-0.38419 -0.24133,-0.69598 -0.3989,-0.92271c-0.16311,-0.23472 -0.38922,-0.50991 -0.63983,-0.8162l-1.54791,1.26648zm-0.6508,-1.01684c0.07321,0.22929 0.18651,0.4128 0.29244,0.56148c0.10014,0.14057 0.22872,0.2969 0.35836,0.45536l1.54791,-1.26648c-0.14647,-0.17902 -0.22497,-0.27579 -0.27738,-0.34935c-0.04662,-0.06544 -0.03134,-0.05708 -0.0161,-0.00935l-1.90523,0.60834zm0.06999,-1.40324c-0.19227,0.44389 -0.21713,0.94242 -0.06999,1.40324l1.90523,-0.60834l-1.83524,-0.7949zm0.74872,-0.947c-0.14476,0.14476 -0.28825,0.28752 -0.40188,0.41741c-0.12019,0.13741 -0.25118,0.30873 -0.34684,0.52959l1.83524,0.7949c-0.01991,0.04597 -0.03595,0.05277 0.01695,-0.00769c0.05946,-0.06798 0.14719,-0.15645 0.31074,-0.31999l-1.41421,-1.41422zm0.89332,-0.89332l-0.89332,0.89332l1.41421,1.41422l0.89332,-0.89332l-1.41421,-1.41422zm0,0l0,0l1.41421,1.41422l0,-0.00001l-1.41421,-1.41421zm0.94665,-0.7485c-0.22077,0.09565 -0.39203,0.2266 -0.52938,0.34676c-0.12985,0.11359 -0.27257,0.25703 -0.41727,0.40174l1.41421,1.41421c0.16349,-0.16349 0.25193,-0.25119 0.31988,-0.31063c0.06045,-0.05288 0.05365,-0.03685 0.0077,-0.01694l-0.79514,-1.83514zm1.40372,-0.07002c-0.46097,-0.14725 -0.95969,-0.12237 -1.40372,0.07001l0.79513,1.83515l0.00001,0l0.60858,-1.90516zm1.01651,0.65067c-0.15841,-0.12962 -0.3147,-0.25816 -0.45522,-0.35828c-0.14863,-0.10589 -0.33208,-0.21917 -0.56129,-0.29239l-0.60858,1.90516c-0.04772,-0.01524 -0.05608,-0.03052 0.00935,0.0161c0.07355,0.0524 0.1703,0.13089 0.34927,0.27732l1.26647,-1.54791zm0.73848,0.6042c0.10336,0.01392 0.11506,0.05408 -0.0477,-0.05903c-0.15477,-0.10757 -0.35852,-0.27333 -0.69078,-0.54517l-1.26647,1.54791c0.30616,0.25049 0.58122,0.4765 0.81581,0.63955c0.22661,0.15749 0.53823,0.34714 0.9222,0.39885l0.26694,-1.98211zm0,0l0,0l-0.26694,1.98211c0.71235,0.09593 1.42139,-0.19776 1.85723,-0.7693l-1.59029,-1.21281zm0.09492,-0.94921c-0.04271,0.4271 -0.06957,0.68832 -0.10294,0.87378c-0.03509,0.19501 -0.05521,0.15834 0.00802,0.07543l1.59029,1.21281c0.235,-0.30806 0.3212,-0.66246 0.3701,-0.93406c0.0506,-0.28115 0.0853,-0.63541 0.1246,-1.02895l-1.99007,-0.19901zm0.25856,-1.17839c-0.11023,0.21378 -0.15983,0.42351 -0.19003,0.60342c-0.02856,0.17009 -0.04817,0.37141 -0.06853,0.57497l1.99007,0.19901c0.023,-0.22999 0.0359,-0.35383 0.0509,-0.44283c0.0132,-0.07918 0.0181,-0.06248 -0.0048,-0.01798l-1.77761,-0.91659zm1.04241,-0.94339c-0.45018,0.17794 -0.82056,0.51313 -1.04241,0.94339l1.77761,0.91659l0,0l-0.7352,-1.85998zm1.1983,-0.14002c-0.2046,0 -0.4069,-0.00052 -0.5789,0.01097c-0.1821,0.01216 -0.3957,0.04064 -0.6194,0.12905l0.7352,1.85998c-0.0466,0.0184 -0.0627,0.01188 0.0174,0.00653c0.0901,-0.00601 0.2146,-0.00653 0.4457,-0.00653l0,-2zm1.2637,0l-1.2637,0l0,2l1.2637,0l0,-2zm1.1986,0.1401c-0.2238,-0.08847 -0.4374,-0.11696 -0.6195,-0.12912c-0.1722,-0.0115 -0.3745,-0.01098 -0.5791,-0.01098l0,2c0.2312,0 0.3557,0.00052 0.4458,0.00653c0.0801,0.00535 0.064,0.01188 0.0174,-0.00653l0.7354,-1.8599zm1.0421,0.94312c-0.2218,-0.4301 -0.5921,-0.76519 -1.0421,-0.94312l-0.7354,1.8599l0,0l1.7775,-0.91678zm0.1275,9.91678c0,1.6569 -1.3431,3 -3,3l0,2c2.7614,0 5,-2.2386 5,-5l-2,0zm-3,-3c1.6569,0 3,1.3431 3,3l2,0c0,-2.76142 -2.2386,-5 -5,-5l0,2zm-3,3c0,-1.6569 1.3431,-3 3,-3l0,-2c-2.76142,0 -5,2.23858 -5,5l2,0zm3,3c-1.6569,0 -3,-1.3431 -3,-3l-2,0c0,2.7614 2.23858,5 5,5l0,-2z"/>
 </g>
</svg>