<svg width="24" height="24" viewBox="0 0 24 24" fill="none" xmlns="http://www.w3.org/2000/svg">
<path d="M21.4899 2.19623C18.1456 -0.732077 12.6994 -0.732077 9.3586 2.19623L0.0923406 10.3035C0.0319856 10.3563 3.2822e-05 10.4278 3.2822e-05 10.5024C3.2822e-05 10.577 0.0319856 10.6485 0.0923406 10.7014L1.4024 11.8485C1.46228 11.9007 1.54334 11.93 1.62784 11.93C1.71234 11.93 1.7934 11.9007 1.85328 11.8485L11.1195 3.74121C12.2698 2.73402 13.8 2.18069 15.426 2.18069C17.0521 2.18069 18.5822 2.73402 19.729 3.74121C20.8793 4.7484 21.5112 6.08821 21.5112 7.50884C21.5112 8.93258 20.8793 10.2693 19.729 11.2765L10.2852 19.5423L8.75505 20.8821C7.32428 22.1348 4.99884 22.1348 3.56807 20.8821C2.87577 20.2759 2.49589 19.4708 2.49589 18.6128C2.49589 17.7548 2.87577 16.9497 3.56807 16.3435L12.9373 8.143C13.1752 7.93783 13.4876 7.82281 13.8213 7.82281H13.8249C14.1586 7.82281 14.4675 7.93783 14.7018 8.143C14.9397 8.35127 15.0675 8.62483 15.0675 8.91704C15.0675 9.20614 14.9361 9.4797 14.7018 9.68486L7.04381 16.3839C6.98345 16.4368 6.9515 16.5083 6.9515 16.5829C6.9515 16.6575 6.98345 16.729 7.04381 16.7818L8.35386 17.9289C8.41375 17.9811 8.49481 18.0104 8.57931 18.0104C8.66381 18.0104 8.74487 17.9811 8.80475 17.9289L16.4592 11.2267C17.1657 10.6081 17.5527 9.78745 17.5527 8.91393C17.5527 8.04041 17.1621 7.21663 16.4592 6.60113C15 5.32349 12.6284 5.3266 11.1692 6.60113L10.2604 7.40004L1.80358 14.8016C1.22961 15.3012 0.77463 15.8957 0.465033 16.5504C0.155436 17.2052 -0.00261895 17.9072 3.2822e-05 18.6159C3.2822e-05 20.0552 0.642635 21.4074 1.80358 22.4239C3.00713 23.4746 4.58346 24 6.15979 24C7.73611 24 9.31244 23.4746 10.5124 22.4239L21.4899 12.8183C23.1053 11.4008 24 9.51389 24 7.50884C24.0035 5.50068 23.1089 3.61376 21.4899 2.19623Z" fill="currentColor"/>
</svg>
