<svg width="36" height="36" viewBox="0 0 36 36" fill="none" xmlns="http://www.w3.org/2000/svg">
<path d="M21.375 6H14.625C9.85203 6 7.46554 6 5.98277 7.50631C4.5 9.01262 4.5 11.437 4.5 16.2857V19.7143C4.5 24.563 4.5 26.9874 5.98277 28.4937C7.46554 30 9.85203 30 14.625 30H21.375C26.148 30 28.5345 30 30.0172 28.4937C31.5 26.9874 31.5 24.563 31.5 19.7143V16.2857C31.5 11.437 31.5 9.01262 30.0172 7.50631C28.5345 6 26.148 6 21.375 6Z" stroke="currentColor" stroke-width="2"/>
<path d="M10.5 12H15" stroke="currentColor" stroke-width="2" stroke-linecap="round"/>
<path d="M22.5 22V20C22.5 19.0572 22.5 18.5858 22.7929 18.2929C23.0858 18 23.5572 18 24.5 18H29.5C30.4428 18 30.9142 18 31.2071 18.2929C31.5 18.5858 31.5 19.0572 31.5 20V22C31.5 22.9428 31.5 23.4142 31.2071 23.7071C30.9142 24 30.4428 24 29.5 24H24.5C23.5572 24 23.0858 24 22.7929 23.7071C22.5 23.4142 22.5 22.9428 22.5 22Z" stroke="currentColor" stroke-width="2"/>
</svg>
