<svg width="40" height="40" viewBox="0 0 40 40" fill="none" xmlns="http://www.w3.org/2000/svg">
<path fill-rule="evenodd" clip-rule="evenodd" d="M18.0162 33.8574L7.47075 27.8343C6.48702 27.2725 5.99516 26.9916 5.72487 26.5259C5.45459 26.0603 5.45459 25.4938 5.45459 24.361V15.7123C5.45459 15.2382 5.45459 14.8633 5.4744 14.5535L19 22.2787V34.3985C18.7291 34.2646 18.4134 34.0843 18.0162 33.8574ZM21 34.3985C21.271 34.2646 21.5867 34.0843 21.9839 33.8574L32.5293 27.8343C33.5131 27.2725 34.0049 26.9916 34.2752 26.5259C34.5455 26.0603 34.5455 25.4938 34.5455 24.361V15.7123C34.5455 15.2382 34.5455 14.8633 34.5257 14.5535L21 22.2787V34.3985ZM33.518 12.8258L20 20.5466L6.48206 12.8258C6.74 12.6563 7.06315 12.4717 7.47075 12.2389L18.0162 6.21584C18.9848 5.6626 19.4691 5.38599 20 5.38599C20.531 5.38599 21.0153 5.6626 21.9839 6.21584L32.5293 12.2389C32.9369 12.4717 33.2601 12.6563 33.518 12.8258Z" fill="#222222"/>
</svg>
