<svg width="50" height="51" viewBox="0 0 50 51" fill="none" xmlns="http://www.w3.org/2000/svg">
<path d="M9.375 17.7344C9.375 17.1333 9.375 16.8327 9.46082 16.5493C9.54663 16.2659 9.71335 16.0158 10.0468 15.5156L12.3542 12.0545C12.9355 11.1826 13.2261 10.7466 13.6683 10.51C14.1105 10.2733 14.6345 10.2733 15.6824 10.2733H34.3176C35.3655 10.2733 35.8895 10.2733 36.3317 10.51C36.7739 10.7466 37.0645 11.1826 37.6458 12.0545L39.9532 15.5156C40.2866 16.0158 40.4534 16.2659 40.5392 16.5493C40.625 16.8327 40.625 17.1333 40.625 17.7344V37.5233C40.625 39.4089 40.625 40.3517 40.0392 40.9375C39.4534 41.5233 38.5106 41.5233 36.625 41.5233H13.375C11.4894 41.5233 10.5466 41.5233 9.96079 40.9375C9.375 40.3517 9.375 39.4089 9.375 37.5233V17.7344Z" stroke="#222222"/>
<path d="M9.375 20.6899H40.625" stroke="#222222" stroke-linecap="round"/>
<path d="M19.7917 20.8399C19.7917 20.7571 19.8589 20.6899 19.9417 20.6899H30.0584C30.1413 20.6899 30.2084 20.7571 30.2084 20.8399V30.3118C30.2084 30.6616 29.8268 30.8777 29.5269 30.6977L25.1287 28.0588C25.0495 28.0113 24.9506 28.0113 24.8715 28.0588L20.4733 30.6977C20.1733 30.8777 19.7917 30.6616 19.7917 30.3118V20.8399Z" stroke="#222222"/>
<rect x="0.5" y="1.39832" width="49" height="49" rx="24.5" stroke="#CCCCCC"/>
</svg>
