<svg width="32" height="32" viewBox="0 0 32 32" fill="none" xmlns="http://www.w3.org/2000/svg">
<path d="M11.656 11.576C10.2253 12.792 9.70135 15.0093 10.936 16.788C12.0962 18.4563 13.5447 19.9043 15.2133 21.064C16.992 22.2987 19.2093 21.7747 20.4254 20.344L20.4387 20.3507C21.9916 21.0705 23.6401 21.5631 25.3334 21.8133V25.3333H25.328C14.696 25.348 6.65468 17.2147 6.66668 6.672V6.66667H10.1867V6.668C10.4373 8.36133 10.9307 10.0093 11.6493 11.5613L11.656 11.5747V11.576ZM25.3334 28H26.6667C27.0203 28 27.3594 27.8595 27.6095 27.6095C27.8595 27.3594 28 27.0203 28 26.6667V20.664C28.0003 20.3441 27.8856 20.0348 27.6768 19.7925C27.468 19.5502 27.1791 19.391 26.8627 19.344L25.724 19.176C24.2836 18.9622 22.8813 18.5428 21.56 17.9307L20.556 17.4653C20.2741 17.3347 19.9554 17.3067 19.655 17.386C19.3546 17.4654 19.0913 17.6472 18.9107 17.9L18.456 18.536C18.0573 19.0947 17.296 19.264 16.7347 18.8733C15.3273 17.895 14.1055 16.6737 13.1267 15.2667C12.736 14.704 12.9067 13.9427 13.464 13.5453L14.1 13.092C14.3531 12.9113 14.5351 12.6478 14.6145 12.3471C14.6939 12.0464 14.6656 11.7274 14.5347 11.4453L14.068 10.44C13.4565 9.11859 13.0375 7.71632 12.824 6.276L12.6547 5.13733C12.6077 4.82095 12.4485 4.53201 12.2062 4.32323C11.9638 4.11444 11.6545 3.99972 11.3347 4H5.33335C4.97973 4 4.64059 4.14048 4.39054 4.39052C4.14049 4.64057 4.00001 4.97971 4.00001 5.33333V6.668C3.98668 18.6773 13.2133 28.0173 25.332 28H25.3334Z" fill="currentColor"/>
</svg>
