<svg width="24" height="24" viewBox="0 0 24 24" fill="none" xmlns="http://www.w3.org/2000/svg">
<path d="M13.925 2.50405C14.317 2.50402 14.7023 2.60643 15.0426 2.80112C15.3829 2.99582 15.6664 3.27605 15.865 3.61405L16.679 5.00105H18.75C19.6118 5.00105 20.4383 5.34332 21.0477 5.9526C21.6572 6.56188 21.9997 7.38827 22 8.25005V17.7501C22 18.1768 21.9159 18.5995 21.7526 18.9938C21.5893 19.3881 21.3499 19.7464 21.0481 20.0482C20.7463 20.3499 20.388 20.5893 19.9937 20.7527C19.5994 20.916 19.1768 21.0001 18.75 21.0001H5.25C4.38805 21.0001 3.5614 20.6576 2.9519 20.0482C2.34241 19.4387 2 18.612 2 17.7501V8.25005C2 7.3881 2.34241 6.56145 2.9519 5.95196C3.5614 5.34246 4.38805 5.00005 5.25 5.00005H7.33L8.205 3.57605C8.40619 3.24827 8.68804 2.97753 9.02364 2.78969C9.35925 2.60184 9.7374 2.50315 10.122 2.50305H13.925V2.50405ZM13.925 4.00405H10.122C10.0126 4.00414 9.90448 4.02818 9.80532 4.07447C9.70616 4.12077 9.61833 4.18821 9.548 4.27205L9.483 4.36205L8.39 6.14205C8.32298 6.25137 8.22904 6.34169 8.11717 6.40436C8.0053 6.46704 7.87923 6.49998 7.751 6.50005H5.251C5.0211 6.49992 4.79343 6.54509 4.581 6.63298C4.36856 6.72086 4.17552 6.84975 4.01292 7.01226C3.85031 7.17478 3.72131 7.36774 3.63331 7.58013C3.5453 7.79251 3.5 8.02015 3.5 8.25005V17.7501C3.5 18.7161 4.284 19.5001 5.25 19.5001H18.75C19.2141 19.5001 19.6592 19.3157 19.9874 18.9875C20.3156 18.6593 20.5 18.2142 20.5 17.7501V8.25005C20.5 7.78592 20.3156 7.3408 19.9874 7.01262C19.6592 6.68443 19.2141 6.50005 18.75 6.50005H16.25C16.1193 6.50012 15.9908 6.46601 15.8773 6.40111C15.7638 6.33621 15.6692 6.24277 15.603 6.13005L14.571 4.37305C14.5048 4.26048 14.4104 4.16714 14.2971 4.10224C14.1838 4.03735 14.0556 4.00316 13.925 4.00305V4.00405ZM12 8.00005C13.1935 8.00005 14.3381 8.47416 15.182 9.31807C16.0259 10.162 16.5 11.3066 16.5 12.5001C16.5 13.6935 16.0259 14.8381 15.182 15.682C14.3381 16.5259 13.1935 17.0001 12 17.0001C10.8065 17.0001 9.66193 16.5259 8.81802 15.682C7.97411 14.8381 7.5 13.6935 7.5 12.5001C7.5 11.3066 7.97411 10.162 8.81802 9.31807C9.66193 8.47416 10.8065 8.00005 12 8.00005ZM12 9.50005C11.606 9.50005 11.2159 9.57765 10.8519 9.72841C10.488 9.87918 10.1573 10.1002 9.87868 10.3787C9.6001 10.6573 9.37913 10.988 9.22836 11.352C9.0776 11.716 9 12.1061 9 12.5001C9 12.894 9.0776 13.2841 9.22836 13.6481C9.37913 14.0121 9.6001 14.3428 9.87868 14.6214C10.1573 14.8999 10.488 15.1209 10.8519 15.2717C11.2159 15.4225 11.606 15.5001 12 15.5001C12.7956 15.5001 13.5587 15.184 14.1213 14.6214C14.6839 14.0588 15 13.2957 15 12.5001C15 11.7044 14.6839 10.9413 14.1213 10.3787C13.5587 9.81612 12.7956 9.50005 12 9.50005Z" fill="currentColor"/>
</svg>
