<svg width="25" height="25" viewBox="0 0 25 25" fill="none" xmlns="http://www.w3.org/2000/svg">
<path d="M14.7251 3.50154H13.7251V3.55142L13.73 3.60104L14.7251 3.50154ZM14.7251 3.50153H15.7251V3.45166L15.7201 3.40203L14.7251 3.50153ZM15.0747 5.12745L15.8267 4.46836L15.8267 4.46836L15.0747 5.12745ZM15.8925 5.46619L15.9582 6.46403H15.9582L15.8925 5.46619ZM17.2894 4.56372L17.9226 5.33768L17.9612 5.3061L17.9965 5.27083L17.2894 4.56372ZM17.2894 4.56372L16.6561 3.78976L16.6175 3.82134L16.5823 3.85661L17.2894 4.56372ZM18.0654 4.0426L18.3253 5.00824L18.3253 5.00824L18.0654 4.0426ZM18.6799 4.07325L18.3253 5.00824L18.3253 5.00824L18.6799 4.07325ZM19.4002 4.669L18.6931 5.3761L18.6931 5.37611L19.4002 4.669ZM20.3309 5.59969L21.038 4.89259L21.038 4.89259L20.3309 5.59969ZM20.9267 6.32002L21.8617 5.96537L21.8617 5.96536L20.9267 6.32002ZM20.9573 6.93453L21.923 7.19439V7.19439L20.9573 6.93453ZM20.4362 7.71056L19.6622 7.07732L19.6622 7.07733L20.4362 7.71056ZM19.5337 9.10749L20.5315 9.17322V9.17321L19.5337 9.10749ZM19.8724 9.92527L19.2133 10.6773L19.2133 10.6773L19.8724 9.92527ZM21.4984 10.2749L21.3989 11.2699H21.3989L21.4984 10.2749ZM22.4157 10.4551L21.9166 11.3217H21.9166L22.4157 10.4551ZM22.8285 10.9113L23.7404 10.5009L23.7404 10.5009L22.8285 10.9113ZM22.8285 14.0887L21.9166 13.6784L21.9166 13.6784L22.8285 14.0887ZM22.4156 14.545L21.9166 13.6784L21.9166 13.6784L22.4156 14.545ZM21.4985 14.7252L21.399 13.7301L21.4985 14.7252ZM19.873 15.0746L19.2141 14.3224L19.214 14.3224L19.873 15.0746ZM19.5341 15.8928L18.5363 15.9587V15.9587L19.5341 15.8928ZM20.4364 17.2892L21.2103 16.656L21.2103 16.656L20.4364 17.2892ZM20.9573 18.0649L21.923 17.805V17.8049L20.9573 18.0649ZM20.9267 18.6797L21.8616 19.0345L21.8616 19.0345L20.9267 18.6797ZM18.68 20.9264L19.0346 21.8614L19.0346 21.8614L18.68 20.9264ZM18.0654 20.957L18.3253 19.9914L18.0654 20.957ZM17.2894 20.4359L17.9227 19.6619H17.9227L17.2894 20.4359ZM15.8925 19.5334L15.9583 18.5356H15.9583L15.8925 19.5334ZM15.0747 19.8722L15.8268 20.5313L15.0747 19.8722ZM14.7251 21.4983L13.7301 21.3988L14.7251 21.4983ZM14.5448 22.4159L13.6783 21.9167L13.6783 21.9167L14.5448 22.4159ZM14.0887 22.8286L14.4992 23.7405L14.4992 23.7405L14.0887 22.8286ZM10.9112 22.8286L11.3216 21.9167L11.3216 21.9167L10.9112 22.8286ZM10.455 22.4158L11.3216 21.9167L11.3216 21.9167L10.455 22.4158ZM10.2748 21.4985L9.27973 21.598V21.598L10.2748 21.4985ZM9.92514 19.8726L10.6772 19.2134H10.6772L9.92514 19.8726ZM9.10739 19.5338L9.04168 18.536H9.04168L9.10739 19.5338ZM7.71041 20.4364L8.34365 21.2103L8.34365 21.2103L7.71041 20.4364ZM6.93435 20.9575L7.19419 21.9232H7.19419L6.93435 20.9575ZM6.31987 20.9269L5.96522 21.8619L5.96523 21.8619L6.31987 20.9269ZM5.59951 20.3311L4.8924 21.0382H4.89241L5.59951 20.3311ZM4.66885 19.4004L5.37595 18.6933L5.33679 18.6541L5.29354 18.6195L4.66885 19.4004ZM4.66883 19.4004L3.96172 20.1075L4.00089 20.1467L4.04414 20.1813L4.66883 19.4004ZM4.07307 18.6801L5.00807 18.3254L5.00807 18.3254L4.07307 18.6801ZM4.04242 18.0656L5.00807 18.3254L5.00807 18.3254L4.04242 18.0656ZM4.56357 17.2895L5.33753 17.9228L5.3509 17.9064L5.36357 17.8895L4.56357 17.2895ZM4.56358 17.2895L3.78962 16.6563L3.77625 16.6726L3.76358 16.6895L4.56358 17.2895ZM5.46607 15.8926L6.4639 15.9583L5.46607 15.8926ZM5.12733 15.0748L5.78642 14.3227L5.78642 14.3227L5.12733 15.0748ZM3.50141 14.7252L3.60091 13.7302L3.55129 13.7252H3.50141V14.7252ZM3.5014 14.7252L3.4019 15.7202L3.45153 15.7252H3.5014V14.7252ZM2.58419 14.545L2.08513 15.4115L2.08513 15.4115L2.58419 14.545ZM2.17133 14.0887L3.08325 13.6784L3.08325 13.6784L2.17133 14.0887ZM2.17137 10.9112L3.08325 11.3217L3.08325 11.3217L2.17137 10.9112ZM2.5841 10.4552L2.08494 9.58867L2.08494 9.58867L2.5841 10.4552ZM3.50154 10.2749L3.60104 11.2699H3.60104L3.50154 10.2749ZM5.12783 9.92514L4.46862 9.17318L4.46862 9.17318L5.12783 9.92514ZM5.46647 9.1076L6.46431 9.04202V9.04202L5.46647 9.1076ZM4.56375 7.71027L5.33771 7.07703L4.56375 7.71027ZM4.04244 6.93391L5.00812 6.6742L4.04244 6.93391ZM4.07307 6.31969L5.00812 6.6742V6.6742L4.07307 6.31969ZM4.66902 5.59909L3.96191 4.89198L3.96191 4.89198L4.66902 5.59909ZM6.31991 4.07277L5.96528 3.13776L5.96528 3.13776L6.31991 4.07277ZM6.9344 4.04212L7.19424 3.07647L7.19424 3.07647L6.9344 4.04212ZM7.71054 4.56333L7.0773 5.33729L7.09365 5.35066L7.11054 5.36333L7.71054 4.56333ZM7.71054 4.56334L8.34378 3.78938L8.32744 3.77601L8.31054 3.76334L7.71054 4.56334ZM9.10725 5.46577L9.04136 6.4636H9.04136L9.10725 5.46577ZM9.9253 5.12693L9.17314 4.46795L9.17314 4.46795L9.9253 5.12693ZM10.2748 3.50142L11.2698 3.60092L11.2748 3.55129V3.50142H10.2748ZM10.2748 3.5014L9.29092 3.32252L9.27479 3.41123V3.5014H10.2748ZM10.2748 3.50139L11.2587 3.68027L11.2658 3.6408L11.2698 3.60089L10.2748 3.50139ZM10.455 2.5844L11.3216 3.08338L11.3216 3.08337L10.455 2.5844ZM10.9113 2.17141L10.5011 1.25944L10.501 1.25944L10.9113 2.17141ZM14.0886 2.17145L13.6783 3.08337L13.6783 3.08337L14.0886 2.17145ZM14.5448 2.58431L15.4114 2.08525V2.08525L14.5448 2.58431ZM15.7251 3.50154V3.50153H13.7251V3.50154H15.7251ZM15.8267 4.46836C15.9035 4.55596 15.879 4.60141 15.8378 4.38415C15.7985 4.17669 15.7682 3.88262 15.7201 3.40204L13.73 3.60104C13.7743 4.04381 13.8132 4.44225 13.8728 4.75669C13.9306 5.06133 14.0347 5.45805 14.3226 5.78654L15.8267 4.46836ZM15.8267 4.46836V4.46836L14.3226 5.78654C14.7327 6.25451 15.3373 6.50494 15.9582 6.46403L15.8267 4.46836ZM16.6561 3.78977C16.2823 4.0956 16.0529 4.28209 15.8784 4.40097C15.6957 4.52547 15.7105 4.47601 15.8267 4.46836L15.9582 6.46403C16.3941 6.43532 16.7482 6.22843 17.0045 6.05386C17.269 5.87367 17.5782 5.61945 17.9226 5.33768L16.6561 3.78977ZM16.5823 3.85661L16.5823 3.85662L17.9965 5.27083L17.9965 5.27083L16.5823 3.85661ZM17.8055 3.07695C17.5443 3.14724 17.3362 3.27096 17.1682 3.38863C17.0097 3.49962 16.8341 3.64412 16.6561 3.78976L17.9226 5.33768C18.1238 5.17309 18.2326 5.08491 18.3155 5.02684C18.3889 4.97546 18.3792 4.99373 18.3253 5.00824L17.8055 3.07695ZM19.0346 3.13825C18.6415 2.98916 18.2115 2.96771 17.8055 3.07695L18.3253 5.00824H18.3253L19.0346 3.13825ZM20.1073 3.96189C19.9447 3.79926 19.7844 3.63801 19.6377 3.5118C19.4822 3.37799 19.2875 3.23419 19.0346 3.13825L18.3253 5.00824C18.273 4.98843 18.2652 4.96929 18.3331 5.02772C18.4098 5.09375 18.5093 5.19232 18.6931 5.3761L20.1073 3.96189ZM21.038 4.89259L20.1073 3.96189L18.6931 5.37611L19.6238 6.3068L21.038 4.89259ZM21.8617 5.96536C21.7657 5.71245 21.6219 5.5177 21.4881 5.36221C21.3619 5.21556 21.2007 5.05522 21.038 4.89259L19.6238 6.3068C19.8076 6.49059 19.9062 6.59008 19.9722 6.66681C20.0306 6.73471 20.0115 6.72691 19.9917 6.67468L21.8617 5.96536ZM21.923 7.19439C22.0322 6.78845 22.0108 6.35842 21.8617 5.96537L19.9917 6.67467L19.9917 6.67468L21.923 7.19439ZM21.2102 8.3438C21.3558 8.16579 21.5003 7.99021 21.6113 7.83172C21.729 7.66369 21.8527 7.45559 21.923 7.19439L19.9917 6.67467C20.0062 6.62073 20.0245 6.61106 19.9731 6.68443C19.915 6.76735 19.8268 6.87616 19.6622 7.07732L21.2102 8.3438ZM20.5315 9.17321C20.5239 9.28945 20.4744 9.30427 20.5989 9.12152C20.7178 8.94701 20.9043 8.71761 21.2102 8.3438L19.6622 7.07733C19.3805 7.42172 19.1262 7.73099 18.946 7.99548C18.7715 8.25174 18.5646 8.60591 18.5359 9.04177L20.5315 9.17321ZM20.5315 9.17321V9.17322L18.5359 9.04176C18.495 9.66265 18.7454 10.2672 19.2133 10.6773L20.5315 9.17321ZM21.5979 9.27985C21.1173 9.23179 20.8232 9.20145 20.6158 9.16212C20.3985 9.12093 20.4439 9.09643 20.5315 9.17321L19.2133 10.6773C19.5418 10.9652 19.9386 11.0694 20.2432 11.1271C20.5577 11.1867 20.9561 11.2256 21.3989 11.2699L21.5979 9.27985ZM22.9147 9.58858C22.6803 9.45358 22.4457 9.39391 22.2437 9.3583C22.0531 9.32472 21.8268 9.30274 21.5979 9.27985L21.3989 11.2699C21.6575 11.2958 21.7968 11.3104 21.8965 11.3279C21.9847 11.3435 21.965 11.3496 21.9166 11.3217L22.9147 9.58858ZM23.7404 10.5009C23.5679 10.1176 23.279 9.79837 22.9147 9.58858L21.9166 11.3217L21.9166 11.3217L23.7404 10.5009ZM23.9166 11.842C23.9166 11.612 23.9172 11.3845 23.9028 11.1916C23.8875 10.987 23.8514 10.7476 23.7404 10.5009L21.9166 11.3217C21.8937 11.2708 21.9017 11.2517 21.9084 11.341C21.9159 11.442 21.9166 11.582 21.9166 11.842H23.9166ZM23.9166 13.1582V11.842H21.9166V13.1582H23.9166ZM23.7405 14.499C23.8515 14.2523 23.8875 14.013 23.9028 13.8085C23.9172 13.6155 23.9166 13.3882 23.9166 13.1582H21.9166C21.9166 13.4181 21.9159 13.5581 21.9084 13.6591C21.9017 13.7484 21.8937 13.7293 21.9166 13.6784L23.7405 14.499ZM22.9146 15.4116C23.279 15.2018 23.568 14.8824 23.7405 14.4989L21.9166 13.6784L21.9166 13.6784L22.9146 15.4116ZM21.598 15.7202C21.8268 15.6973 22.0531 15.6754 22.2436 15.6418C22.4456 15.6062 22.6802 15.5466 22.9146 15.4116L21.9166 13.6784C21.965 13.6505 21.9847 13.6566 21.8965 13.6721C21.7968 13.6897 21.6576 13.7043 21.399 13.7301L21.598 15.7202ZM20.5319 15.8268C20.4443 15.9036 20.3989 15.8791 20.6161 15.8379C20.8235 15.7986 21.1175 15.7683 21.598 15.7202L21.399 13.7301C20.9563 13.7744 20.558 13.8133 20.2437 13.8729C19.9391 13.9306 19.5425 14.0347 19.2141 14.3224L20.5319 15.8268ZM20.5319 15.8268L20.5319 15.8268L19.214 14.3224C18.7458 14.7327 18.4952 15.3375 18.5363 15.9587L20.5319 15.8268ZM21.2103 16.656C20.9046 16.2823 20.7181 16.053 20.5993 15.8785C20.4748 15.6958 20.5243 15.7106 20.5319 15.8268L18.5363 15.9587C18.5651 16.3944 18.7719 16.7484 18.9464 17.0046C19.1266 17.269 19.3807 17.5782 19.6624 17.9224L21.2103 16.656ZM21.923 17.8049C21.8526 17.5438 21.729 17.3358 21.6113 17.1679C21.5004 17.0094 21.3559 16.8339 21.2103 16.656L19.6624 17.9224C19.8269 18.1235 19.9151 18.2323 19.9731 18.3152C20.0245 18.3885 20.0063 18.3789 19.9917 18.325L21.923 17.8049ZM21.8616 19.0345C22.0108 18.6413 22.0323 18.2111 21.923 17.805L19.9917 18.3249L21.8616 19.0345ZM21.0382 20.1069C21.2008 19.9443 21.362 19.7841 21.4881 19.6374C21.6219 19.482 21.7657 19.2873 21.8616 19.0345L19.9917 18.3249C20.0115 18.2727 20.0307 18.2649 19.9723 18.3328C19.9062 18.4095 19.8077 18.509 19.624 18.6927L21.0382 20.1069ZM20.1074 21.0377L21.0382 20.1069L19.624 18.6927L18.6932 19.6235L20.1074 21.0377ZM19.0346 21.8614C19.2875 21.7654 19.4823 21.6216 19.6378 21.4878C19.7844 21.3616 19.9447 21.2004 20.1074 21.0377L18.6932 19.6235C18.5094 19.8073 18.4099 19.9059 18.3332 19.9719C18.2653 20.0303 18.2731 20.0112 18.3253 19.9914L19.0346 21.8614ZM17.8056 21.9227C18.2115 22.0319 18.6416 22.0105 19.0346 21.8614L18.3253 19.9914L18.3253 19.9914L17.8056 21.9227ZM16.6562 21.2099C16.8342 21.3555 17.0098 21.5 17.1683 21.611C17.3363 21.7287 17.5444 21.8524 17.8056 21.9227L18.3253 19.9914C18.3792 20.0059 18.3889 20.0242 18.3155 19.9728C18.2326 19.9147 18.1238 19.8265 17.9227 19.6619L16.6562 21.2099ZM15.8268 20.5313C15.7105 20.5236 15.6957 20.4741 15.8785 20.5986C16.053 20.7175 16.2824 20.904 16.6562 21.2099L17.9227 19.6619C17.5783 19.3802 17.269 19.1259 17.0045 18.9458C16.7483 18.7712 16.3941 18.5643 15.9583 18.5356L15.8268 20.5313ZM15.8268 20.5313L15.8268 20.5313L15.9583 18.5356C15.3374 18.4947 14.7328 18.7451 14.3227 19.2131L15.8268 20.5313ZM15.7201 21.5978C15.7682 21.1171 15.7985 20.823 15.8379 20.6155C15.8791 20.3982 15.9036 20.4436 15.8268 20.5313L14.3227 19.2131C14.0348 19.5416 13.9306 19.9383 13.8729 20.243C13.8133 20.5575 13.7743 20.9559 13.7301 21.3988L15.7201 21.5978ZM15.4113 22.9151C15.5463 22.6806 15.606 22.4459 15.6417 22.2438C15.6753 22.0532 15.6972 21.8268 15.7201 21.5978L13.7301 21.3988C13.7042 21.6575 13.6896 21.7969 13.672 21.8966C13.6565 21.9849 13.6504 21.9651 13.6783 21.9167L15.4113 22.9151ZM14.4992 23.7405C14.8824 23.568 15.2015 23.2792 15.4113 22.9151L13.6783 21.9167L13.6783 21.9167L14.4992 23.7405ZM13.1579 23.9167C13.3879 23.9167 13.6154 23.9174 13.8084 23.9029C14.013 23.8876 14.2525 23.8515 14.4992 23.7405L13.6783 21.9167C13.7292 21.8938 13.7483 21.9018 13.6589 21.9085C13.558 21.9161 13.4179 21.9167 13.1579 21.9167V23.9167ZM11.8418 23.9167H13.1579V21.9167H11.8418V23.9167ZM10.5008 23.7405C10.7475 23.8516 10.9869 23.8876 11.1915 23.9029C11.3844 23.9174 11.6118 23.9167 11.8418 23.9167V21.9167C11.5819 21.9167 11.4419 21.9161 11.3409 21.9085C11.2516 21.9018 11.2706 21.8938 11.3216 21.9167L10.5008 23.7405ZM9.58846 22.9149C9.79825 23.2791 10.1175 23.568 10.5008 23.7405L11.3216 21.9167L11.3216 21.9167L9.58846 22.9149ZM9.27973 21.598C9.30262 21.8269 9.3246 22.0532 9.35818 22.2438C9.39379 22.4458 9.45346 22.6805 9.58846 22.9149L11.3216 21.9167C11.3495 21.9651 11.3434 21.9849 11.3278 21.8967C11.3103 21.797 11.2957 21.6577 11.2698 21.399L9.27973 21.598ZM9.1731 20.5317C9.09631 20.4441 9.12081 20.3986 9.162 20.6159C9.20133 20.8233 9.23167 21.1174 9.27973 21.598L11.2698 21.399C11.2255 20.9562 11.1866 20.5578 11.127 20.2433C11.0692 19.9387 10.9651 19.5419 10.6772 19.2134L9.1731 20.5317ZM9.17309 20.5317L9.1731 20.5317L10.6772 19.2134C10.2671 18.7455 9.66255 18.4951 9.04168 18.536L9.17309 20.5317ZM8.34365 21.2103C8.71748 20.9044 8.94688 20.718 9.1214 20.5991C9.30416 20.4746 9.28934 20.524 9.1731 20.5317L9.04168 18.536C8.60581 18.5647 8.25163 18.7716 7.99536 18.9462C7.73086 19.1264 7.42159 19.3806 7.07718 19.6624L8.34365 21.2103ZM7.19419 21.9232C7.45541 21.8529 7.66351 21.7291 7.83155 21.6115C7.99004 21.5005 8.16563 21.356 8.34365 21.2103L7.07718 19.6624C6.876 19.827 6.76719 19.9152 6.68427 19.9732C6.61089 20.0246 6.62056 20.0064 6.6745 19.9919L7.19419 21.9232ZM5.96523 21.8619C6.35826 22.0109 6.78827 22.0324 7.19419 21.9232L6.6745 19.9919L6.6745 19.9919L5.96523 21.8619ZM4.89241 21.0382C5.05505 21.2008 5.21539 21.3621 5.36205 21.4883C5.51754 21.6221 5.7123 21.7659 5.96522 21.8619L6.67451 19.9919C6.72674 20.0117 6.73454 20.0308 6.66664 19.9724C6.58991 19.9063 6.49042 19.8078 6.30662 19.624L4.89241 21.0382ZM3.96174 20.1075L4.8924 21.0382L6.30662 19.624L5.37595 18.6933L3.96174 20.1075ZM4.04414 20.1813L4.04415 20.1813L5.29354 18.6195L5.29353 18.6195L4.04414 20.1813ZM3.13807 19.0347C3.234 19.2876 3.37781 19.4824 3.51162 19.6379C3.63783 19.7845 3.79909 19.9449 3.96172 20.1075L5.37594 18.6933C5.19215 18.5095 5.09358 18.41 5.02755 18.3333C4.96912 18.2654 4.98826 18.2732 5.00807 18.3254L3.13807 19.0347ZM3.07678 17.8057C2.96754 18.2116 2.98899 18.6417 3.13807 19.0347L5.00807 18.3254L5.00807 18.3254L3.07678 17.8057ZM3.78961 16.6563C3.64396 16.8343 3.49946 17.0099 3.38846 17.1684C3.27078 17.3364 3.14707 17.5445 3.07678 17.8057L5.00807 18.3254C4.99356 18.3794 4.97529 18.389 5.02668 18.3157C5.08475 18.2327 5.17293 18.1239 5.33753 17.9228L3.78961 16.6563ZM3.76358 16.6895L3.76357 16.6895L5.36357 17.8895L5.36358 17.8895L3.76358 16.6895ZM4.46823 15.8269C4.47589 15.7106 4.52534 15.6958 4.40084 15.8786C4.28196 16.0531 4.09546 16.2825 3.78962 16.6563L5.33753 17.9227C5.61931 17.5784 5.87354 17.2691 6.05373 17.0046C6.2283 16.7483 6.43519 16.3942 6.4639 15.9583L4.46823 15.8269ZM4.46823 15.8269L4.46823 15.8269L6.4639 15.9583C6.5048 15.3374 6.25439 14.7329 5.78642 14.3227L4.46823 15.8269ZM3.40191 15.7202C3.88249 15.7683 4.17657 15.7986 4.38403 15.838C4.60128 15.8791 4.55584 15.9036 4.46823 15.8269L5.78642 14.3227C5.45793 14.0349 5.06121 13.9307 4.75656 13.873C4.44212 13.8133 4.04368 13.7744 3.60091 13.7302L3.40191 15.7202ZM3.5014 15.7252H3.50141V13.7252H3.5014V15.7252ZM2.08513 15.4115C2.31952 15.5465 2.55414 15.6062 2.75617 15.6418C2.94671 15.6754 3.17304 15.6973 3.4019 15.7202L3.60091 13.7302C3.34228 13.7043 3.203 13.6897 3.10331 13.6721C3.01509 13.6566 3.03484 13.6505 3.08325 13.6784L2.08513 15.4115ZM1.2594 14.4991C1.43191 14.8825 1.72083 15.2017 2.08513 15.4115L3.08325 13.6784L1.2594 14.4991ZM1.08325 13.1581C1.08325 13.3881 1.0826 13.6155 1.09706 13.8085C1.11238 14.013 1.14841 14.2524 1.25941 14.4991L3.08325 13.6784C3.10617 13.7293 3.09816 13.7484 3.09147 13.6591C3.0839 13.5581 3.08325 13.4181 3.08325 13.1581H1.08325ZM1.08325 11.8421V13.1581H3.08325V11.8421H1.08325ZM1.25949 10.5008C1.14844 10.7475 1.1124 10.987 1.09706 11.1916C1.0826 11.3846 1.08325 11.612 1.08325 11.8421H3.08325C3.08325 11.5821 3.0839 11.442 3.09147 11.341C3.09817 11.2517 3.10619 11.2707 3.08325 11.3217L1.25949 10.5008ZM2.08494 9.58867C1.7208 9.79843 1.43198 10.1176 1.25949 10.5008L3.08325 11.3217L3.08325 11.3217L2.08494 9.58867ZM3.40204 9.27984C3.17312 9.30273 2.94673 9.32472 2.75614 9.35831C2.55406 9.39393 2.31939 9.45362 2.08494 9.58867L3.08325 11.3217C3.03484 11.3496 3.01508 11.3435 3.10331 11.3279C3.20303 11.3104 3.34235 11.2958 3.60104 11.2699L3.40204 9.27984ZM4.46862 9.17318C4.55624 9.09637 4.6017 9.12088 4.3844 9.16208C4.17689 9.20142 3.88274 9.23177 3.40203 9.27984L3.60104 11.2699C4.04392 11.2256 4.44246 11.1867 4.75698 11.1271C5.06169 11.0693 5.45851 10.9651 5.78705 10.6771L4.46862 9.17318ZM4.46862 9.17318L4.46862 9.17318L5.78704 10.6771C6.25478 10.267 6.50511 9.66271 6.46431 9.04202L4.46862 9.17318ZM3.78979 8.34351C4.09573 8.71743 4.28228 8.9469 4.4012 9.12147C4.52574 9.30428 4.47626 9.28946 4.46862 9.17318L6.46431 9.04202C6.43566 8.60605 6.22872 8.25178 6.05411 7.99545C5.87388 7.73088 5.61957 7.42153 5.33771 7.07703L3.78979 8.34351ZM3.07675 7.19363C3.14703 7.45494 3.27078 7.66312 3.3885 7.83122C3.49953 7.98977 3.64409 8.16542 3.78979 8.34351L5.33771 7.07703C5.17305 6.87578 5.08483 6.76693 5.02674 6.68397C4.97533 6.61056 4.99361 6.62023 5.00812 6.6742L3.07675 7.19363ZM3.13802 5.96517C2.98906 6.35806 2.96763 6.78787 3.07675 7.19363L5.00812 6.6742L5.00812 6.6742L3.13802 5.96517ZM3.96191 4.89198C3.79922 5.05468 3.63791 5.21507 3.51165 5.36178C3.37779 5.51733 3.23395 5.71216 3.13802 5.96517L5.00812 6.6742C4.98831 6.72645 4.96916 6.73426 5.02761 6.66634C5.09366 6.58958 5.19227 6.49006 5.37613 6.3062L3.96191 4.89198ZM4.89245 3.96144L3.96191 4.89198L5.37613 6.3062L6.30667 5.37566L4.89245 3.96144ZM5.96528 3.13776C5.71235 3.23369 5.51759 3.3775 5.3621 3.51132C5.21543 3.63754 5.0551 3.7988 4.89245 3.96144L6.30667 5.37566C6.49047 5.19186 6.58996 5.09329 6.66669 5.02725C6.73459 4.96882 6.72679 4.98796 6.67455 5.00777L5.96528 3.13776ZM7.19424 3.07647C6.78832 2.96724 6.35831 2.98869 5.96528 3.13776L6.67455 5.00777H6.67455L7.19424 3.07647ZM8.34378 3.78938C8.16573 3.6437 7.99013 3.49918 7.83162 3.38818C7.66358 3.27049 7.45547 3.14676 7.19424 3.07647L6.67455 5.00777C6.6206 4.99325 6.61093 4.97498 6.68433 5.02638C6.76727 5.08447 6.8761 5.17267 7.0773 5.33729L8.34378 3.78938ZM8.31054 3.76334L8.31054 3.76333L7.11054 5.36333L7.11054 5.36334L8.31054 3.76334ZM9.17314 4.46795C9.28937 4.47562 9.30418 4.52506 9.12143 4.40055C8.94693 4.28167 8.71755 4.09519 8.34378 3.78938L7.07731 5.33729C7.42167 5.61904 7.73088 5.87323 7.99533 6.0534C8.25152 6.22795 8.60561 6.43483 9.04136 6.4636L9.17314 4.46795ZM9.17314 4.46795L9.17314 4.46795L9.04136 6.4636C9.66248 6.50462 10.2673 6.2541 10.6775 5.7859L9.17314 4.46795ZM9.27975 3.40191C9.2317 3.88237 9.20137 4.17636 9.16206 4.38377C9.12088 4.60097 9.0964 4.55554 9.17314 4.46795L10.6775 5.78591C10.9652 5.45746 11.0693 5.06083 11.1271 4.75627C11.1867 4.44191 11.2256 4.04357 11.2698 3.60092L9.27975 3.40191ZM9.27479 3.5014V3.50142H11.2748V3.5014H9.27479ZM9.29092 3.3225L9.29092 3.32252L11.2587 3.68029L11.2587 3.68027L9.29092 3.3225ZM9.58834 2.08543C9.45341 2.31978 9.39377 2.55434 9.35817 2.75632C9.3246 2.94682 9.30263 3.17309 9.27975 3.40188L11.2698 3.60089C11.2957 3.34233 11.3103 3.20309 11.3278 3.10342C11.3434 3.01523 11.3494 3.03498 11.3216 3.08338L9.58834 2.08543ZM10.501 1.25944C10.1175 1.43197 9.79817 1.72099 9.58834 2.08543L11.3216 3.08337L11.3216 3.08337L10.501 1.25944ZM11.8417 1.08337C11.6117 1.08337 11.3844 1.08272 11.1915 1.09717C10.987 1.11249 10.7477 1.14849 10.5011 1.25944L11.3216 3.08337C11.2706 3.10629 11.2516 3.09827 11.3409 3.09158C11.4418 3.08403 11.5818 3.08337 11.8417 3.08337V1.08337ZM13.158 1.08337H11.8417V3.08337H13.158V1.08337ZM14.499 1.25953C14.2523 1.14853 14.0129 1.11251 13.8084 1.09718C13.6154 1.08272 13.388 1.08337 13.158 1.08337V3.08337C13.4179 3.08337 13.558 3.08403 13.6589 3.09159C13.7483 3.09828 13.7292 3.1063 13.6783 3.08337L14.499 1.25953ZM15.4114 2.08525C15.2016 1.72096 14.8823 1.43204 14.499 1.25953L13.6783 3.08337V3.08337L15.4114 2.08525ZM15.7201 3.40203C15.6972 3.17317 15.6752 2.94684 15.6417 2.75629C15.6061 2.55426 15.5464 2.31964 15.4114 2.08525L13.6783 3.08337C13.6504 3.03497 13.6565 3.01522 13.672 3.10343C13.6896 3.20312 13.7042 3.34241 13.73 3.60104L15.7201 3.40203ZM15.6666 12.5C15.6666 14.2489 14.2488 15.6667 12.4999 15.6667V17.6667C15.3534 17.6667 17.6666 15.3535 17.6666 12.5H15.6666ZM12.4999 9.33337C14.2488 9.33337 15.6666 10.7511 15.6666 12.5H17.6666C17.6666 9.64657 15.3534 7.33337 12.4999 7.33337V9.33337ZM9.33325 12.5C9.33325 10.7511 10.751 9.33337 12.4999 9.33337V7.33337C9.64645 7.33337 7.33325 9.64657 7.33325 12.5H9.33325ZM12.4999 15.6667C10.751 15.6667 9.33325 14.2489 9.33325 12.5H7.33325C7.33325 15.3535 9.64645 17.6667 12.4999 17.6667V15.6667Z" fill="currentColor"/>
</svg>
