<svg width="25" height="25" viewBox="0 0 25 25" fill="none" xmlns="http://www.w3.org/2000/svg">
<path d="M20.1312 6.01842C20.8334 7.06935 20.8334 8.53233 20.8334 11.4583C20.8334 14.3843 20.8334 15.8472 20.1312 16.8982C19.8272 17.3531 19.4366 17.7438 18.9816 18.0478C18.0635 18.6612 16.831 18.7387 14.5834 18.7485V18.75L13.4318 21.0532C13.0479 21.821 11.9523 21.821 11.5684 21.0532L10.4167 18.75V18.7485C8.16914 18.7387 6.93661 18.6612 6.01854 18.0478C5.56358 17.7438 5.17295 17.3531 4.86896 16.8982C4.16675 15.8472 4.16675 14.3843 4.16675 11.4583C4.16675 8.53233 4.16675 7.06935 4.86896 6.01842C5.17295 5.56346 5.56358 5.17283 6.01854 4.86884C7.06947 4.16663 8.53245 4.16663 11.4584 4.16663H13.5417C16.4677 4.16663 17.9307 4.16663 18.9816 4.86884C19.4366 5.17283 19.8272 5.56346 20.1312 6.01842Z" stroke="#CCCCCC" stroke-width="2" stroke-linecap="round" stroke-linejoin="round"/>
<path d="M9.375 9.375L15.625 9.375" stroke="#CCCCCC" stroke-width="2" stroke-linecap="round" stroke-linejoin="round"/>
<path d="M9.375 13.5416H12.5" stroke="#CCCCCC" stroke-width="2" stroke-linecap="round" stroke-linejoin="round"/>
</svg>
